<svg xmlns="http://www.w3.org/2000/svg" xmlns:xlink="http://www.w3.org/1999/xlink" width="500" zoomAndPan="magnify" viewBox="0 0 375 374.999991" height="500" preserveAspectRatio="xMidYMid meet" version="1.0"><defs><g/><clipPath id="e0cbc9870c"><path d="M 297 71 L 304.542969 71 L 304.542969 264 L 297 264 Z M 297 71 " clip-rule="nonzero"/></clipPath><clipPath id="96bcc83791"><path d="M 68.292969 71 L 76 71 L 76 264 L 68.292969 264 Z M 68.292969 71 " clip-rule="nonzero"/></clipPath><clipPath id="0afb3af475"><path d="M 89 49.410156 L 283 49.410156 L 283 57 L 89 57 Z M 89 49.410156 " clip-rule="nonzero"/></clipPath><clipPath id="8d7247b213"><path d="M 89 278 L 283 278 L 283 285.660156 L 89 285.660156 Z M 89 278 " clip-rule="nonzero"/></clipPath><clipPath id="7ef4912b26"><path d="M 282 49.410156 L 304.542969 49.410156 L 304.542969 72 L 282 72 Z M 282 49.410156 " clip-rule="nonzero"/></clipPath><clipPath id="8a6c9dc309"><path d="M 68.292969 49.410156 L 90 49.410156 L 90 72 L 68.292969 72 Z M 68.292969 49.410156 " clip-rule="nonzero"/></clipPath><clipPath id="1469d4f1af"><path d="M 282 263 L 304.542969 263 L 304.542969 285.660156 L 282 285.660156 Z M 282 263 " clip-rule="nonzero"/></clipPath><clipPath id="591a6fee26"><path d="M 68.292969 263 L 90 263 L 90 285.660156 L 68.292969 285.660156 Z M 68.292969 263 " clip-rule="nonzero"/></clipPath></defs><g clip-path="url(#e0cbc9870c)"><path fill="#3d4a55" d="M 297.1875 71.03125 L 304.238281 71.03125 L 304.238281 263.738281 L 297.1875 263.738281 Z M 297.1875 71.03125 " fill-opacity="1" fill-rule="nonzero"/></g><g clip-path="url(#96bcc83791)"><path fill="#3d4a55" d="M 68.292969 71.03125 L 75.34375 71.03125 L 75.34375 263.738281 L 68.292969 263.738281 Z M 68.292969 71.03125 " fill-opacity="1" fill-rule="nonzero"/></g><g clip-path="url(#0afb3af475)"><path fill="#3d4a55" d="M 89.914062 49.410156 L 282.617188 49.410156 L 282.617188 56.460938 L 89.914062 56.460938 Z M 89.914062 49.410156 " fill-opacity="1" fill-rule="nonzero"/></g><g clip-path="url(#8d7247b213)"><path fill="#3d4a55" d="M 89.914062 278.308594 L 282.617188 278.308594 L 282.617188 285.355469 L 89.914062 285.355469 Z M 89.914062 278.308594 " fill-opacity="1" fill-rule="nonzero"/></g><g clip-path="url(#7ef4912b26)"><path fill="#3d4a55" d="M 297.1875 56.460938 L 297.1875 71.03125 L 304.238281 71.03125 L 304.238281 49.410156 L 282.617188 49.410156 L 282.617188 56.460938 Z M 297.1875 56.460938 " fill-opacity="1" fill-rule="nonzero"/></g><g clip-path="url(#8a6c9dc309)"><path fill="#3d4a55" d="M 75.34375 56.460938 L 89.914062 56.460938 L 89.914062 49.410156 L 68.292969 49.410156 L 68.292969 71.03125 L 75.34375 71.03125 Z M 75.34375 56.460938 " fill-opacity="1" fill-rule="nonzero"/></g><g clip-path="url(#1469d4f1af)"><path fill="#3d4a55" d="M 297.1875 278.308594 L 282.617188 278.308594 L 282.617188 285.355469 L 304.238281 285.355469 L 304.238281 263.738281 L 297.1875 263.738281 Z M 297.1875 278.308594 " fill-opacity="1" fill-rule="nonzero"/></g><g clip-path="url(#591a6fee26)"><path fill="#3d4a55" d="M 75.34375 278.308594 L 75.34375 263.738281 L 68.292969 263.738281 L 68.292969 285.355469 L 89.914062 285.355469 L 89.914062 278.308594 Z M 75.34375 278.308594 " fill-opacity="1" fill-rule="nonzero"/></g><g fill="#3d4a55" fill-opacity="1"><g transform="translate(87.578923, 319.932217)"><g><path d="M 10.34375 0.203125 C 7.90625 0.203125 6.003906 -0.492188 4.640625 -1.890625 C 3.273438 -3.285156 2.59375 -5.289062 2.59375 -7.90625 L 2.59375 -18.34375 L 5.21875 -18.34375 L 5.21875 -8.015625 C 5.21875 -4.085938 6.9375 -2.125 10.375 -2.125 C 12.050781 -2.125 13.332031 -2.609375 14.21875 -3.578125 C 15.113281 -4.546875 15.5625 -6.023438 15.5625 -8.015625 L 15.5625 -18.34375 L 18.109375 -18.34375 L 18.109375 -7.90625 C 18.109375 -5.269531 17.425781 -3.257812 16.0625 -1.875 C 14.695312 -0.488281 12.789062 0.203125 10.34375 0.203125 Z M 10.34375 0.203125 "/></g></g></g><g fill="#3d4a55" fill-opacity="1"><g transform="translate(120.100862, 319.932217)"><g><path d="M 8.09375 0.203125 C 6.71875 0.203125 5.382812 -0.0078125 4.09375 -0.4375 C 2.8125 -0.863281 1.804688 -1.414062 1.078125 -2.09375 L 2.046875 -4.140625 C 2.742188 -3.515625 3.640625 -3.003906 4.734375 -2.609375 C 5.828125 -2.210938 6.945312 -2.015625 8.09375 -2.015625 C 9.613281 -2.015625 10.75 -2.269531 11.5 -2.78125 C 12.25 -3.300781 12.625 -3.988281 12.625 -4.84375 C 12.625 -5.476562 12.414062 -5.988281 12 -6.375 C 11.59375 -6.769531 11.085938 -7.070312 10.484375 -7.28125 C 9.890625 -7.488281 9.039062 -7.722656 7.9375 -7.984375 C 6.5625 -8.316406 5.445312 -8.648438 4.59375 -8.984375 C 3.75 -9.316406 3.023438 -9.828125 2.421875 -10.515625 C 1.816406 -11.210938 1.515625 -12.144531 1.515625 -13.3125 C 1.515625 -14.289062 1.769531 -15.171875 2.28125 -15.953125 C 2.800781 -16.742188 3.582031 -17.375 4.625 -17.84375 C 5.675781 -18.3125 6.984375 -18.546875 8.546875 -18.546875 C 9.628906 -18.546875 10.691406 -18.40625 11.734375 -18.125 C 12.785156 -17.851562 13.6875 -17.453125 14.4375 -16.921875 L 13.578125 -14.828125 C 12.804688 -15.316406 11.984375 -15.6875 11.109375 -15.9375 C 10.234375 -16.195312 9.378906 -16.328125 8.546875 -16.328125 C 7.054688 -16.328125 5.941406 -16.054688 5.203125 -15.515625 C 4.460938 -14.972656 4.09375 -14.273438 4.09375 -13.421875 C 4.09375 -12.785156 4.300781 -12.269531 4.71875 -11.875 C 5.132812 -11.488281 5.648438 -11.1875 6.265625 -10.96875 C 6.890625 -10.75 7.734375 -10.515625 8.796875 -10.265625 C 10.179688 -9.941406 11.289062 -9.613281 12.125 -9.28125 C 12.96875 -8.945312 13.691406 -8.4375 14.296875 -7.75 C 14.898438 -7.070312 15.203125 -6.15625 15.203125 -5 C 15.203125 -4.039062 14.9375 -3.160156 14.40625 -2.359375 C 13.882812 -1.566406 13.085938 -0.941406 12.015625 -0.484375 C 10.953125 -0.0234375 9.644531 0.203125 8.09375 0.203125 Z M 8.09375 0.203125 "/></g></g></g><g fill="#3d4a55" fill-opacity="1"><g transform="translate(148.167845, 319.932217)"><g><path d="M 16.0625 -2.28125 L 16.0625 0 L 2.75 0 L 2.75 -18.34375 L 15.703125 -18.34375 L 15.703125 -16.0625 L 5.375 -16.0625 L 5.375 -10.421875 L 14.5625 -10.421875 L 14.5625 -8.203125 L 5.375 -8.203125 L 5.375 -2.28125 Z M 16.0625 -2.28125 "/></g></g></g><g fill="#3d4a55" fill-opacity="1"><g transform="translate(177.518911, 319.932217)"><g><path d="M 8.71875 -8.15625 L 5.375 -4.75 L 5.375 0 L 2.75 0 L 2.75 -18.34375 L 5.375 -18.34375 L 5.375 -8.09375 L 15.328125 -18.34375 L 18.3125 -18.34375 L 10.484375 -10.09375 L 18.8125 0 L 15.75 0 Z M 8.71875 -8.15625 "/></g></g></g><g fill="#3d4a55" fill-opacity="1"><g transform="translate(208.15405, 319.932217)"><g><path d="M 14.4375 -4.578125 L 4.6875 -4.578125 L 2.671875 0 L -0.03125 0 L 8.28125 -18.34375 L 10.875 -18.34375 L 19.203125 0 L 16.453125 0 Z M 13.515625 -6.6875 L 9.5625 -15.671875 L 5.609375 -6.6875 Z M 13.515625 -6.6875 "/></g></g></g><g fill="#3d4a55" fill-opacity="1"><g transform="translate(239.129864, 319.932217)"><g><path d="M 9.90625 -18.34375 C 12.28125 -18.34375 14.148438 -17.773438 15.515625 -16.640625 C 16.878906 -15.503906 17.5625 -13.941406 17.5625 -11.953125 C 17.5625 -9.960938 16.878906 -8.398438 15.515625 -7.265625 C 14.148438 -6.128906 12.28125 -5.5625 9.90625 -5.5625 L 5.375 -5.5625 L 5.375 0 L 2.75 0 L 2.75 -18.34375 Z M 9.828125 -7.828125 C 11.484375 -7.828125 12.75 -8.179688 13.625 -8.890625 C 14.5 -9.597656 14.9375 -10.617188 14.9375 -11.953125 C 14.9375 -13.273438 14.5 -14.289062 13.625 -15 C 12.75 -15.707031 11.484375 -16.0625 9.828125 -16.0625 L 5.375 -16.0625 L 5.375 -7.828125 Z M 9.828125 -7.828125 "/></g></g></g><g fill="#3d4a55" fill-opacity="1"><g transform="translate(269.843617, 319.932217)"><g><path d="M 16.0625 -2.28125 L 16.0625 0 L 2.75 0 L 2.75 -18.34375 L 15.703125 -18.34375 L 15.703125 -16.0625 L 5.375 -16.0625 L 5.375 -10.421875 L 14.5625 -10.421875 L 14.5625 -8.203125 L 5.375 -8.203125 L 5.375 -2.28125 Z M 16.0625 -2.28125 "/></g></g></g><g fill="#3d4a55" fill-opacity="1"><g transform="translate(99.103114, 155.834578)"><g><path d="M 84.453125 -84.453125 L 84.453125 -35.46875 C 84.453125 -24.289062 80.992188 -15.421875 74.078125 -8.859375 C 67.160156 -2.304688 57.789062 0.96875 45.96875 0.96875 C 34.0625 0.96875 24.585938 -2.304688 17.546875 -8.859375 C 10.515625 -15.421875 7 -24.289062 7 -35.46875 L 7 -84.453125 L 28.46875 -84.453125 L 28.46875 -35.46875 C 28.46875 -29.84375 30.097656 -25.359375 33.359375 -22.015625 C 36.617188 -18.679688 40.859375 -17.015625 46.078125 -17.015625 C 51.234375 -17.015625 55.359375 -18.660156 58.453125 -21.953125 C 61.546875 -25.253906 63.09375 -29.757812 63.09375 -35.46875 L 63.09375 -84.453125 Z M 84.453125 -84.453125 "/></g></g></g><g fill="#3d4a55" fill-opacity="1"><g transform="translate(195.73094, 155.834578)"><g><path d="M 40.890625 -85.40625 C 53.523438 -85.40625 64.625 -82.269531 74.1875 -76 L 66.109375 -59.234375 C 61.679688 -61.804688 56.9375 -63.914062 51.875 -65.5625 C 46.8125 -67.21875 42.550781 -68.046875 39.09375 -68.046875 C 32.894531 -68.046875 29.796875 -65.992188 29.796875 -61.890625 C 29.796875 -59.234375 31.320312 -57.097656 34.375 -55.484375 C 37.4375 -53.878906 41.15625 -52.492188 45.53125 -51.328125 C 49.914062 -50.160156 54.300781 -48.753906 58.6875 -47.109375 C 63.070312 -45.460938 66.789062 -42.785156 69.84375 -39.078125 C 72.90625 -35.378906 74.4375 -30.71875 74.4375 -25.09375 C 74.4375 -16.96875 71.257812 -10.632812 64.90625 -6.09375 C 58.550781 -1.550781 50.46875 0.71875 40.65625 0.71875 C 33.65625 0.71875 26.738281 -0.484375 19.90625 -2.890625 C 13.070312 -5.304688 7.117188 -8.601562 2.046875 -12.78125 L 10.375 -29.3125 C 14.632812 -25.613281 19.660156 -22.578125 25.453125 -20.203125 C 31.242188 -17.828125 36.390625 -16.640625 40.890625 -16.640625 C 44.347656 -16.640625 47.039062 -17.265625 48.96875 -18.515625 C 50.90625 -19.765625 51.875 -21.59375 51.875 -24 C 51.875 -26.332031 50.765625 -28.285156 48.546875 -29.859375 C 46.335938 -31.429688 43.582031 -32.597656 40.28125 -33.359375 C 36.988281 -34.117188 33.410156 -35.140625 29.546875 -36.421875 C 25.691406 -37.710938 22.113281 -39.125 18.8125 -40.65625 C 15.519531 -42.1875 12.765625 -44.617188 10.546875 -47.953125 C 8.335938 -51.296875 7.234375 -55.296875 7.234375 -59.953125 C 7.234375 -67.679688 10.3125 -73.851562 16.46875 -78.46875 C 22.625 -83.09375 30.765625 -85.40625 40.890625 -85.40625 Z M 40.890625 -85.40625 "/></g></g></g><g fill="#3d4a55" fill-opacity="1"><g transform="translate(97.598954, 261.727442)"><g><path d="M 63.453125 0 L 41.140625 -33.171875 L 29.921875 -20.75 L 29.921875 0 L 8.4375 0 L 8.4375 -84.453125 L 29.921875 -84.453125 L 29.921875 -47.890625 L 62.25 -84.453125 L 87.109375 -84.453125 L 55.734375 -49.46875 L 89.15625 0 Z M 63.453125 0 "/></g></g></g><g fill="#3d4a55" fill-opacity="1"><g transform="translate(192.899813, 261.727442)"><g><path d="M 8.4375 -84.453125 L 45.234375 -84.453125 C 56.015625 -84.453125 64.378906 -81.894531 70.328125 -76.78125 C 76.285156 -71.675781 79.265625 -64.421875 79.265625 -55.015625 C 79.265625 -45.117188 76.285156 -37.4375 70.328125 -31.96875 C 64.378906 -26.5 56.015625 -23.765625 45.234375 -23.765625 L 29.921875 -23.765625 L 29.921875 0 L 8.4375 0 Z M 29.921875 -67.5625 L 29.921875 -40.65625 L 44.15625 -40.65625 C 48.894531 -40.65625 52.550781 -41.820312 55.125 -44.15625 C 57.707031 -46.488281 59 -49.863281 59 -54.28125 C 59 -58.625 57.707031 -61.921875 55.125 -64.171875 C 52.550781 -66.429688 48.894531 -67.5625 44.15625 -67.5625 Z M 29.921875 -67.5625 "/></g></g></g></svg>